<?xml version="1.0" encoding="utf-8"?>
<!-- Generator: Adobe Illustrator 16.0.0, SVG Export Plug-In . SVG Version: 6.00 Build 0)  -->
<!DOCTYPE svg PUBLIC "-//W3C//DTD SVG 1.1//EN" "http://www.w3.org/Graphics/SVG/1.1/DTD/svg11.dtd" [
	<!ENTITY ns_flows "http://ns.adobe.com/Flows/1.0/">
	<!ENTITY ns_extend "http://ns.adobe.com/Extensibility/1.0/">
	<!ENTITY ns_ai "http://ns.adobe.com/AdobeIllustrator/10.0/">
	<!ENTITY ns_graphs "http://ns.adobe.com/Graphs/1.0/">
]>
<svg version="1.1" id="Layer_1" xmlns:x="&ns_extend;" xmlns:i="&ns_ai;" xmlns:graph="&ns_graphs;"
	 xmlns="http://www.w3.org/2000/svg" xmlns:xlink="http://www.w3.org/1999/xlink" xmlns:a="http://ns.adobe.com/AdobeSVGViewerExtensions/3.0/"
	 x="0px" y="0px" width="1080px" height="1053px" viewBox="0 433.5 1080 1053" enable-background="new 0 433.5 1080 1053"
	 xml:space="preserve">
<g id="Layer_2_1_">
	<g id="Surfaces">
		<g id="Photo_Surface">
			<g id="Outline_no_shadow">
				<path fill="#001E36" d="M191.25,433.5h697.5C994.5,433.5,1080,519,1080,624.75v670.5c0,105.75-85.5,191.25-191.25,191.25h-697.5
					C85.5,1486.5,0,1401,0,1295.25v-670.5C0,519,85.5,433.5,191.25,433.5z"/>
			</g>
		</g>
	</g>
	<g id="Outlined_Mnemonics_Logos">
		<g id="Ps">
			<path fill="#31A8FF" d="M243,1171.95V708.9c0-3.15,1.35-4.95,4.5-4.95c7.65,0,14.85,0,25.2-0.45c10.8-0.45,22.05-0.45,34.2-0.9
				c12.149-0.449,25.199-0.449,39.149-0.899s27.45-0.45,40.95-0.45c36.9,0,67.5,4.5,92.7,13.95c22.5,7.649,43.2,20.25,60.3,36.899
				c14.4,14.4,25.65,31.95,32.85,51.301c6.75,18.899,10.351,38.25,10.351,58.5c0,38.699-9,70.649-27,95.85s-43.2,44.1-72.45,54.9
				c-30.6,11.25-64.35,15.3-101.25,15.3c-10.8,0-18,0-22.5-0.45s-10.8-0.45-19.35-0.45v144.45c0.449,3.149-1.801,5.85-4.95,6.3
				c-0.45,0-0.9,0-1.8,0h-85.5C244.8,1177.8,243,1176,243,1171.95z M341.1,790.8V942c6.301,0.45,12.15,0.9,17.551,0.9h23.85
				c17.55,0,35.1-2.7,51.75-8.101c14.4-4.05,27-12.6,36.9-23.85C480.6,899.7,485.1,884.4,485.1,864.6
				c0.45-13.949-3.149-27.899-10.35-40.05c-7.65-11.7-18.45-20.7-31.5-25.649c-16.65-6.75-34.65-9.45-53.1-9
				c-11.7,0-22.051,0-30.601,0.449C350.55,789.9,344.25,790.35,341.1,790.8L341.1,790.8z"/>
			<path fill="#31A8FF" d="M864,914.55c-13.5-7.2-27.9-12.149-43.2-15.3c-16.649-3.6-33.3-5.85-50.399-5.85
				c-9-0.45-18.45,0.899-27,3.149c-5.851,1.351-10.801,4.5-13.95,9c-2.25,3.601-3.601,8.101-3.601,12.15s1.801,8.1,4.5,11.7
				c4.051,4.949,9.45,9,15.301,12.149C756,946.95,766.8,951.9,777.6,956.4c24.301,8.1,47.7,19.35,69.301,32.85
				c14.85,9.45,27,22.05,35.55,37.35c7.2,14.4,10.8,30.15,10.35,46.351c0.45,21.149-5.85,42.3-17.55,59.85
				c-12.6,18-30.15,31.95-50.4,40.05c-22.05,9.45-49.05,14.4-81.449,14.4c-20.7,0-40.95-1.8-61.2-5.851
				c-15.75-2.699-31.5-7.649-45.9-14.399c-3.149-1.8-5.399-4.95-4.95-8.55v-78.3c0-1.351,0.45-3.15,1.8-4.051
				c1.351-0.899,2.7-0.449,4.051,0.45c17.55,10.351,36,17.55,55.8,22.05c17.1,4.5,35.1,6.75,53.1,6.75
				c17.101,0,29.25-2.25,37.351-6.3c7.2-3.149,12.149-10.8,12.149-18.899c0-6.3-3.6-12.15-10.8-18
				c-7.2-5.851-22.05-12.601-44.1-21.15c-22.95-8.1-44.101-18.899-63.9-32.399c-13.95-9.9-25.65-22.95-34.2-38.25
				c-7.2-14.4-10.8-30.15-10.35-45.9c0-19.35,5.399-37.8,15.3-54.45c11.25-18,27.9-32.399,47.25-41.399
				c21.15-10.801,47.7-15.75,79.65-15.75c18.449,0,37.35,1.35,55.8,4.05c13.5,1.8,26.55,5.399,38.699,10.35
				c1.801,0.45,3.601,2.25,4.5,4.05c0.45,1.801,0.9,3.601,0.9,5.4v73.35c0,1.801-0.9,3.601-2.25,4.5
				C868.05,915.45,865.8,915.45,864,914.55z"/>
		</g>
	</g>
</g>
</svg>
